<?xml version="1.0" encoding="UTF-8"?>
<svg id="katman_1" xmlns="http://www.w3.org/2000/svg" xmlns:xlink="http://www.w3.org/1999/xlink" version="1.1" viewBox="0 0 1675.66 535.02">
  <!-- Generator: Adobe Illustrator 30.2.1, SVG Export Plug-In . SVG Version: 2.1.1 Build 1)  -->
  <defs>
    <style>
      .st0 {
        fill: url(#Adsız_degrade_10);
      }

      .st1 {
        fill: #1a2651;
      }

      .st2 {
        fill: url(#Adsız_degrade_4);
      }

      .st3 {
        fill: url(#Adsız_degrade_3);
      }

      .st4 {
        fill: url(#Adsız_degrade_2);
      }

      .st5 {
        fill: url(#Adsız_degrade_9);
      }

      .st6 {
        fill: url(#Adsız_degrade_8);
      }

      .st7 {
        fill: url(#Adsız_degrade_5);
      }

      .st8 {
        fill: url(#Adsız_degrade_7);
      }

      .st9 {
        fill: url(#Adsız_degrade_6);
      }

      .st10 {
        fill: url(#Adsız_degrade);
      }

      .st11 {
        fill: #fff;
      }

      .st12 {
        fill: #f58020;
      }
    </style>
    <linearGradient id="Adsız_degrade" data-name="Adsız degrade" x1="181.28" y1="963.69" x2="205.86" y2="963.69" gradientTransform="translate(0 1165.21) scale(1 -1)" gradientUnits="userSpaceOnUse">
      <stop offset="0" stop-color="#f68a1f"/>
      <stop offset=".18" stop-color="#f68a1f"/>
    </linearGradient>
    <linearGradient id="Adsız_degrade_2" data-name="Adsız degrade 2" x1="157.23" y1="932.86" x2="177.91" y2="955.17" gradientTransform="translate(0 1165.21) scale(1 -1)" gradientUnits="userSpaceOnUse">
      <stop offset="0" stop-color="#f68a1f"/>
      <stop offset=".18" stop-color="#f68a1f"/>
    </linearGradient>
    <linearGradient id="Adsız_degrade_3" data-name="Adsız degrade 3" x1="206.12" y1="978.98" x2="223.35" y2="978.98" gradientTransform="translate(0 1165.21) scale(1 -1)" gradientUnits="userSpaceOnUse">
      <stop offset="0" stop-color="#f68a1f"/>
      <stop offset=".18" stop-color="#f68a1f"/>
    </linearGradient>
    <radialGradient id="Adsız_degrade_4" data-name="Adsız degrade 4" cx="187.17" cy="1007.08" fx="187.17" fy="1007.08" r="173.26" gradientTransform="translate(0 1165.21) scale(1 -1)" gradientUnits="userSpaceOnUse">
      <stop offset="0" stop-color="#2c4772"/>
      <stop offset=".88" stop-color="#1a2651"/>
    </radialGradient>
    <radialGradient id="Adsız_degrade_5" data-name="Adsız degrade 5" cx="249.64" cy="815.98" fx="424.79" fy="592.23" r="284.15" gradientTransform="translate(0 1514.67) scale(1 -1.48)" gradientUnits="userSpaceOnUse">
      <stop offset="0" stop-color="#f26822"/>
      <stop offset="1" stop-color="#f9a01e"/>
    </radialGradient>
    <radialGradient id="Adsız_degrade_6" data-name="Adsız degrade 6" cx="264.88" cy="985.99" fx="264.88" fy="985.99" r="33.56" gradientTransform="translate(0 1165.21) scale(1 -1)" gradientUnits="userSpaceOnUse">
      <stop offset=".72" stop-color="#ce5927"/>
      <stop offset="1" stop-color="#f68a1f"/>
    </radialGradient>
    <radialGradient id="Adsız_degrade_7" data-name="Adsız degrade 7" cx="322.24" cy="1049.5" fx="322.24" fy="1049.5" r="93.59" gradientTransform="translate(0 1165.21) scale(1 -1)" gradientUnits="userSpaceOnUse">
      <stop offset=".7" stop-color="#ce5927"/>
      <stop offset="1" stop-color="#f68a1f"/>
    </radialGradient>
    <radialGradient id="Adsız_degrade_8" data-name="Adsız degrade 8" cx="290.66" cy="1053.24" fx="290.66" fy="1053.24" r="72.68" gradientTransform="translate(-14.95 1142.45) scale(.98 -.98)" gradientUnits="userSpaceOnUse">
      <stop offset="0" stop-color="#2c4772"/>
      <stop offset=".88" stop-color="#1e2756"/>
    </radialGradient>
    <linearGradient id="Adsız_degrade_9" data-name="Adsız degrade 9" x1="11.04" y1="806.67" x2="87.19" y2="806.67" gradientTransform="translate(0 1165.21) scale(1 -1)" gradientUnits="userSpaceOnUse">
      <stop offset="0" stop-color="#ce5927"/>
      <stop offset="1" stop-color="#f68a1f"/>
    </linearGradient>
    <linearGradient id="Adsız_degrade_10" data-name="Adsız degrade 10" x1="93.62" y1="876.27" x2="138.39" y2="910.59" gradientTransform="translate(0 1165.21) scale(1 -1)" gradientUnits="userSpaceOnUse">
      <stop offset="0" stop-color="#f68a1f"/>
      <stop offset=".62" stop-color="#f68a1f"/>
    </linearGradient>
  </defs>
  <polygon class="st11" points="288.11 220.7 337.68 124.27 231.46 88.12 103.63 124.27 81.16 220.7 231.46 245.48 288.11 220.7"/>
  <path class="st11" d="M415.19,174.17s-.04-.04-.06-.06c-5.65-5.65-18.85,0-30.15-1.89-52.76-13.19-101.76-16.96-154.53-22.61-1.89,0-1.89,5.65-3.78,5.65-3.78,0-5.65-3.78-9.43-3.78-7.54,1.89-13.19,7.54-18.85,9.43-80.83,7.03-148.55,51.76-187.88,121.94,5.86,18.71,11.81,31.88,12.5,33.39,8.61,18.71,18.77,34.91,23.89,43.08,10.27,16.39,18.57,27.64,20.98,30.87,6.44,8.61,12.34,15.81,17.15,21.42,2.56,1.01,5.18,2.14,7.86,3.41,11.76,5.61,21.26,12.41,28.74,18.95,41.94-27.14,86.55-54.52,133.8-81.74,51.16-29.46,100.92-56.14,148.88-80.32,8.31-31.87,12.2-64.82,10.85-97.78v.04h.03Z"/>
  <path class="st10" d="M198.39,191.32c-4.68.66-9.69,5.72-13.88,8.4-1.87,1.42-3.25,2.99-3.23,4.61.45,3.55,4.56,7.06,8.12,7.42,3.24.15,6.52-3.16,9.61-5.68,3.18-2.83,7.45-5.61,6.78-8.74-.77-3.03-3.97-5.85-7.09-6.03h-.32v.02h.01Z"/>
  <path class="st4" d="M149.57,228.67c.31,2.37,3.14,5.31,4.8,7.34,2.16,2.62,4.23,4.2,6.97,1.59,3.8-3.18,11.85-10.21,16-13.81,1.1-1.01,2.71-2.18,2.63-3.63-.58-2.49-3.18-4.24-5.04-6.11-2.65-2.54-5.52-3.56-8.47-.94-3.13,2.38-7.96,6.33-11.76,9.43-2.96,2.48-5.21,4.03-5.16,5.9v.24h.03,0Z"/>
  <path class="st3" d="M218.6,179.53c-1.42-.14-3.03.89-4.79,1.9-2.31,1.47-4.99,2.61-7.03,4.42-2.1,2.1,1.38,4.45,2.93,5.88,1.35,1.17,3.17,1.68,4.78.69,1.28-.7,2.42-1.78,3.59-2.68,2.32-2.01,5.79-3.89,5.2-6.06-.62-1.86-2.48-3.66-4.38-4.11l-.31-.04h.01Z"/>
  <g>
    <path class="st2" d="M361.47,62.08C314.46,13.81,242.74-8.72,176.41,3.1,110.08,14.92,50.85,60.43,21.49,121.07c-29.35,60.65-28.45,134.87,1.55,195.2,49.31-51.26,104.2-97.16,163.37-136.62-28.01,8.89-56.02,17.77-84.03,26.66,16.75-44.48,63.5-75.81,111.01-74.4,24.39.72,48.06,10.06,67.23,25.09l93.71-80.28c-4.04-5.09-8.33-9.97-12.85-14.64h-.01Z"/>
    <path class="st7" d="M395.45,109.42c-2.71-5.24-5.68-10.43-8.93-15.55-3.76-5.93-7.83-11.67-12.2-17.16l-93.71,80.28c18.17,14.26,32.33,33.64,39.2,55.74,14.1,45.39-3.55,98.82-41.91,126.9-38.36,28.07-94.62,28.73-133.63,1.56,21.49-40.86,42.96-81.73,64.44-122.59l-19.92,17.08c-40.11,47.58-75.02,99.54-103.84,154.7-2.04,3.92-4.13,8.13-3.75,12.54.46,5.4,4.45,9.74,8.21,13.61,36.55,37.7,73.09,75.4,109.64,113.11,2.16,2.23,4.51,4.56,7.55,5.21,4.51.94,8.79-2.11,12.38-5.02,45.32-36.67,88.3-76.78,123.33-123.39,62.7-83.39,103.65-199.33,53.12-297.01h.02Z"/>
  </g>
  <path class="st9" d="M282.78,155.96c-2.2,1.9-4.95,4.28-6.41,7.73-2.01,4.75-.9,9.57.07,13.82.31,1.37.61,2.65.8,3.89,1.37,8.92-3.69,18.64-11.75,22.61-.15.07-.28.14-.38.18-.06-.07-.11-.17-.18-.28-2.04-3.21-3.06-7.09-4.14-11.2-.56-2.13-1.14-4.33-1.89-6.49-3.13-9.14-9.21-15.03-16.29-15.77-.89-.1-1.83-.11-2.78-.13-1.07,0-3.07-.04-3.37-.42,0,0,0-.04-.03-.06l-5.85,4.97c2.55,3.09,6.34,3.17,9.13,3.2.7,0,1.42,0,2.09.08,4.73.49,8.19,5.8,9.83,10.62.65,1.9,1.17,3.87,1.72,5.96,1.18,4.49,2.41,9.14,5.1,13.37.8,1.27,2.13,3.02,4.41,3.71.63.2,1.27.27,1.86.27,1.87,0,3.44-.77,4.13-1.11,11.12-5.48,17.82-18.39,15.93-30.69-.24-1.52-.58-3.02-.9-4.47-.79-3.41-1.52-6.62-.49-9.07.76-1.8,2.59-3.38,4.35-4.92l11.44-9.89-5.44-5.44-10.99,9.51h.01l.02.02h0Z"/>
  <path class="st8" d="M406.27,22.32s-.04-.03-.06-.04c-.82-.56-3.3-2.47-8.34-2.76-10.2-.62-18.23,1.86-18.23,1.86-13.47,4.16-22.29,12.41-26.63,17.23-3.27,3.63-5.51,7-6.9,9.31.62,1.1,2.04,3.32,3.93,3.3.31,0,.54-.07.66-.11,4.49-1.35,9.17-6.79,9.17-6.79,1.99-1.83,4.93-3.66,10.82-7.31,0,0,15.89-10.93,26.4-9.83,2.11.23,3.69.7,4.8,1.47.03.03.06.06.1.08,5.95,4.24,3.1,17.1-.2,23.18-5.31,9.78-14.67,17.36-23.05,23.73-4.34,3.3-9.26,7.03-11.68,12.74-1.83,4.33-1.86,8.88-1.89,12.89l-.44,69.63c-.03,3.4-.04,6.92-1.32,9.71-1.37,2.99-4.25,5.38-7.04,7.69l-13.91,11.5c-.82.68-1.85,1.52-2.52,1.63-1.45.27-3.34-3.09-4.11-7.27l-10.93-59c-1.25-6.76-5.59-7.14-6.88-7.1-2.24.08-3.76,1.39-4.59,2.11l-29.8,25.78c-2.2,1.9-4.95,4.28-6.41,7.73-2.01,4.75-.9,9.57.07,13.82.31,1.37.61,2.65.8,3.89,1.37,8.92-3.69,18.64-11.75,22.61-.15.07-.28.14-.38.18-.06-.07-.11-.17-.18-.28-2.04-3.21-3.06-7.09-4.14-11.2-.56-2.13-1.14-4.33-1.89-6.49-3.13-9.14-9.21-15.03-16.29-15.77-.89-.1-1.83-.11-2.78-.13-1.07,0-3.07-.04-3.37-.42,0,0,0-.04-.03-.06l-5.85,4.97c2.55,3.09,6.34,3.17,9.13,3.2.7,0,1.42,0,2.09.08,4.73.49,8.19,5.8,9.83,10.62.65,1.9,1.17,3.87,1.72,5.96,1.18,4.49,2.41,9.14,5.1,13.37.8,1.27,2.13,3.02,4.41,3.71.63.2,1.27.27,1.86.27,1.87,0,3.44-.77,4.13-1.11,11.12-5.48,17.82-18.39,15.93-30.69-.24-1.52-.58-3.02-.9-4.47-.79-3.41-1.52-6.62-.49-9.07.76-1.8,2.59-3.38,4.35-4.92l28.8-24.92,10.88,58.69c1.7,9.19,6.76,14.48,12.89,13.45,2.72-.45,4.69-2.09,6.14-3.28l13.91-11.5c3.14-2.59,7.04-5.82,9.14-10.43,1.96-4.3,1.99-9.06,2.01-12.88l.44-69.63c.03-3.45.04-7.02,1.27-9.92,1.62-3.82,5.51-6.76,9.31-9.65,8.97-6.82,19.06-15.02,25.11-26.15,5.06-9.31,7.82-26.29-2.24-33.26v.04h.02,0Z"/>
  <path class="st6" d="M330.9,59.32c-3.47,1.06-7.65,1.47-8.45,1.51-2.93.15-5.92.04-8.85-.06l-63.57-2.28c-5.27-.2-11.26-.41-16.95,1.44-9.48,3.04-15.96,10.76-22.3,19.08-3.38,4.44-2.68,7.61-1.48,9.48,1.47,2.3,3.99,2.94,5.2,3.25l64.91,16.6-15.17,13.45c-2.42,2.16-5.17,4.59-8.1,5.2-2.82.59-6.21-.45-9.2-1.35l-18.72-5.73c-3.52-1.07-7.9-2.42-12.47-1.54-3.83.75-6.99,2.92-9.64,4.89-3.79,2.82-7.47,5.85-10.96,9.03-.96.87-3.2,2.92-3.1,6.03.06,2.23,1.24,5.21,6.51,6.86l18.53,5.82c3.42,1.07,6.96,2.18,9.61,4.2,2.42,1.85,3.82,4.47,3.56,6.69-.08.75-.34,1.65-.59,2.61-.77,2.83-1.83,6.71.79,10.12.06.08.13.14.2.21l5.85-4.97c-.21-.46.28-2.3.56-3.3.31-1.14.68-2.45.82-3.79.56-4.95-1.96-10.19-6.55-13.69-3.72-2.83-8.09-4.2-11.95-5.41l-18.53-5.82c-.1-.03-.2-.06-.28-.08,3.21-2.92,6.61-5.71,10.1-8.3,2.07-1.54,4.28-3.09,6.54-3.52,2.71-.52,5.93.46,8.79,1.34l18.72,5.73c3.68,1.13,8.24,2.52,12.99,1.54,4.92-1.03,8.62-4.33,11.61-6.96l16.15-14.31c3.92-3.47,3.37-6.59,2.69-8.14-1.21-2.79-4.09-3.52-5.17-3.8l-66.54-17.02c.11-.17.25-.37.42-.61,5.79-7.58,11.17-14.06,18.57-16.43,4.44-1.42,9.47-1.24,14.34-1.07l63.57,2.28c2.68.37,5.68.46,8.93.07,15.24-1.87,24.73-13.54,27.61-17.4-1.25-1.07-2.51-2.13-3.76-3.2-2.51,3.3-7.66,9.09-15.2,11.38h-.03v-.03h0Z"/>
  <path class="st11" d="M282.98,64.79c10.02.35,20.03.72,30.07,1.07,6.2.23,12.57.42,18.41-1.62,4.34-1.51,8.17-4.18,11.71-7.11,8.06-6.65,14.88-14.72,23.05-21.23,8.17-6.51,18.33-11.51,28.73-10.44,2.28.24,4.58.79,6.47,2.07,8.24,5.62,5,20.51,1.08,27.7-5.51,10.07-14.67,17.6-23.68,24.4-4.07,3.07-8.35,6.3-10.37,10.98-1.49,3.48-1.54,7.38-1.56,11.17-.14,22.73-.28,45.45-.42,68.19-.03,3.76-.07,7.65-1.63,11.06-1.68,3.65-4.87,6.33-7.97,8.88-4.56,3.75-9.13,7.51-13.68,11.26-1.28,1.06-2.63,2.14-4.27,2.41-4.82.8-7.48-5.34-8.37-10.14-3.59-19.26-7.17-38.52-10.76-57.78-.32-1.75-1.17-3.93-2.94-3.87-.85.03-1.55.61-2.18,1.16-9.78,8.41-19.56,16.82-29.33,25.25-2.09,1.79-4.23,3.66-5.3,6.2-2.03,4.79.32,10.16,1.11,15.3,1.59,10.38-4.2,21.47-13.62,26.09-.99.48-2.11.92-3.16.59-.99-.3-1.68-1.17-2.24-2.04-3.45-5.41-4.23-12.06-6.33-18.13s-6.47-12.26-12.85-12.92c-3.04-.31-6.76.44-8.64-1.97-2.06-2.66.2-6.4.58-9.74.44-3.86-1.89-7.64-4.99-9.97s-6.9-3.55-10.61-4.71c-6.09-1.9-12.16-3.8-18.25-5.69-1.69-.52-3.71-1.47-3.76-3.24-.03-1.21.93-2.2,1.82-3.02,3.35-3.04,6.85-5.92,10.5-8.59,2.42-1.79,5-3.54,7.96-4.11,3.49-.68,7.06.37,10.47,1.41,6.14,1.87,12.3,3.73,18.44,5.61,3.55,1.08,7.28,2.17,10.92,1.41,3.76-.79,6.82-3.41,9.69-5.96,5.3-4.68,10.59-9.34,15.89-14.02,1.07-.94,2.27-2.32,1.69-3.65-.41-.96-1.55-1.31-2.56-1.58-21.85-5.55-43.7-11.12-65.56-16.67-1.08-.28-2.27-.62-2.87-1.56-.99-1.54.15-3.51,1.27-4.96,5.48-7.14,11.54-14.64,20.12-17.39,4.93-1.58,10.23-1.41,15.41-1.23,10.85.39,21.68.77,32.53,1.17h0l-.02-.04h0Z"/>
  <path class="st1" d="M652,165.57h-66.29l-38.28,180.2h-45.08l38.28-180.2h-67.56l8.86-41.29h178.93l-8.86,41.29h0Z"/>
  <path class="st1" d="M668.3,345.75h-41.45l32.59-153.3h39.87l-3.63,16.13c12.81-15.5,28.32-20.25,43.66-20.25,7.44,0,15.67,1.75,22.78,4.59l-13.29,39.7c-6.02-3.17-14.55-4.9-22.3-4.9-19.3,0-35.28,11.55-40.97,36.39l-17.24,81.63h-.02Z"/>
  <polygon class="st1" points="797.72 345.75 756.12 345.75 788.7 192.45 830.31 192.45 797.72 345.75"/>
  <path class="st12" d="M846.45,142.3c0,14.88-11.55,26.26-26.42,26.26s-26.26-11.4-26.26-26.26,11.4-26.57,26.26-26.57,26.42,11.71,26.42,26.57h0Z"/>
  <path class="st1" d="M883.31,330.25l-16.61,78.79h-41.6l46.04-216.57h40.51l-2.69,12.5c10.13-9.81,23.09-16.77,41.45-16.77,37.18,0,64.71,30.85,64.71,70.56,0,43.66-32.43,90.97-85.59,90.97-21.2,0-36.86-6.96-46.2-19.46h-.01v-.02h-.01ZM894.38,268.54c-3.17,25.63,12.19,42.72,34.17,42.72,24.99,0,43.82-21.99,43.82-48.1,0-22.15-14.4-36.22-34.64-36.22-22.78,0-40.51,17.72-43.35,41.6h.01-.01Z"/>
  <path class="st12" d="M1272.66,345.75h-44.93l35.12-164.38-81,143.02h-46.83l-23.09-143.17-34.8,164.53h-44.93l47.14-221.48h63.12l23.73,150.61,86.53-150.61h67.08l-47.14,221.48h0Z"/>
  <path class="st12" d="M1473.28,282.31c-10.59,49.99-43.99,67.39-81.63,67.39s-62.96-19.46-62.96-55.69c0-5.85.79-12.02,2.21-18.67l17.55-82.9h41.6l-18.36,86.07c-.79,3.8-1.11,7.11-1.11,10.13,0,15.82,10.13,22.63,24.84,22.63,18.03,0,32.74-11.71,37.81-36.22l17.4-82.59h41.76l-19.15,89.86h.04,0Z"/>
  <path class="st12" d="M1605.07,270.61l41.45,75.15h-45.08l-25.15-47.47-40.82,47.47h-49.83l71.04-78.31-40.97-74.98h45.56l23.89,48.25,40.51-48.25h49.99l-70.56,78.15h-.03Z"/>
  <path class="st5" d="M18,376.86c-4.42,7.17-7.69,15.3-6.82,23.87.92,13.4,11.29,19.61,21.3,8.81,5.21-5.45,8.81-12.5,12.37-19.16,12.45-24.09,26.63-47.28,42.34-69.39l-14.26-18.94c-20.22,23.51-38.6,48.59-54.93,74.8h0Z"/>
  <path class="st0" d="M148,243.12c-1.24-5.73-9.21-6.13-13.43-2.68l-.28.2c-13.5,11.51-26.42,23.73-38.74,36.5l-.06.03v.03c-1.25,1.3-2.47,2.65-3.72,3.96,4.62,4.9,8.72,10.64,12.98,16.39,11.81-14.95,24.33-29.35,37.56-43.06,3.04-3.17,6.75-7.19,5.68-11.36h.01Z"/>
  <path class="st11" d="M98.46,406.94"/>
</svg>