<?xml version="1.0" encoding="UTF-8"?>
<svg id="katman_1" xmlns="http://www.w3.org/2000/svg" xmlns:xlink="http://www.w3.org/1999/xlink" version="1.1" viewBox="0 0 1200 400">
  <!-- Generator: Adobe Illustrator 29.8.4, SVG Export Plug-In . SVG Version: 2.1.1 Build 6)  -->
  <defs>
    <style>
      .st0 {
        fill: url(#Adsız_degrade_100);
      }

      .st1 {
        fill: url(#Adsız_degrade_631);
      }

      .st2 {
        fill: url(#Adsız_degrade_632);
      }

      .st3 {
        fill: url(#Adsız_degrade_63);
      }

      .st4 {
        fill: url(#Adsız_degrade_16);
      }

      .st5 {
        fill: url(#radial-gradient);
      }

      .st6 {
        fill: url(#linear-gradient);
      }

      .st7 {
        fill: #fff;
      }

      .st8 {
        fill: url(#radial-gradient1);
      }

      .st9 {
        fill: url(#radial-gradient3);
      }

      .st10 {
        fill: url(#radial-gradient2);
      }

      .st11 {
        fill: #18264f;
      }

      .st12 {
        fill: #f58020;
      }
    </style>
    <linearGradient id="Adsız_degrade_63" data-name="Adsız degrade 63" x1="134.02" y1="153.17" x2="151.47" y2="153.17" gradientUnits="userSpaceOnUse">
      <stop offset="0" stop-color="#f68a1f"/>
      <stop offset=".18" stop-color="#f68a1f"/>
    </linearGradient>
    <linearGradient id="Adsız_degrade_631" data-name="Adsız degrade 63" x1="116.94" y1="175.05" x2="131.62" y2="159.21" xlink:href="#Adsız_degrade_63"/>
    <linearGradient id="Adsız_degrade_632" data-name="Adsız degrade 63" x1="151.64" y1="142.31" x2="163.86" y2="142.31" xlink:href="#Adsız_degrade_63"/>
    <radialGradient id="radial-gradient" cx="138.18" cy="122.37" fx="138.18" fy="122.37" r="122.97" gradientUnits="userSpaceOnUse">
      <stop offset="0" stop-color="#2c4772"/>
      <stop offset=".88" stop-color="#1a2651"/>
    </radialGradient>
    <radialGradient id="Adsız_degrade_16" data-name="Adsız degrade 16" cx="182.54" cy="227.22" fx="306.85" fy="68.42" r="201.67" gradientTransform="translate(0 -108.24) scale(1 1.48)" gradientUnits="userSpaceOnUse">
      <stop offset="0" stop-color="#f26822"/>
      <stop offset="1" stop-color="#f9a01e"/>
    </radialGradient>
    <radialGradient id="radial-gradient1" cx="193.37" cy="137.35" fx="193.37" fy="137.35" r="23.81" gradientUnits="userSpaceOnUse">
      <stop offset=".72" stop-color="#ce5927"/>
      <stop offset="1" stop-color="#f68a1f"/>
    </radialGradient>
    <radialGradient id="radial-gradient2" cx="234.07" cy="92.26" fx="234.07" fy="92.26" r="66.43" gradientUnits="userSpaceOnUse">
      <stop offset=".7" stop-color="#ce5927"/>
      <stop offset="1" stop-color="#f68a1f"/>
    </radialGradient>
    <radialGradient id="radial-gradient3" cx="254.67" cy="93.97" fx="254.67" fy="93.97" r="51.59" gradientTransform="translate(-52.68 -3.69) scale(.98)" gradientUnits="userSpaceOnUse">
      <stop offset="0" stop-color="#2c4772"/>
      <stop offset=".88" stop-color="#1e2756"/>
    </radialGradient>
    <linearGradient id="linear-gradient" x1="13.17" y1="264.63" x2="67.22" y2="264.63" gradientUnits="userSpaceOnUse">
      <stop offset="0" stop-color="#ce5927"/>
      <stop offset="1" stop-color="#f68a1f"/>
    </linearGradient>
    <linearGradient id="Adsız_degrade_100" data-name="Adsız degrade 100" x1="71.78" y1="215.21" x2="103.56" y2="190.85" gradientUnits="userSpaceOnUse">
      <stop offset="0" stop-color="#f68a1f"/>
      <stop offset=".62" stop-color="#f68a1f"/>
    </linearGradient>
  </defs>
  <polygon class="st7" points="209.83 166.77 245.01 98.33 169.62 72.67 78.89 98.33 62.94 166.77 169.62 184.36 209.83 166.77"/>
  <path class="st7" d="M300.03,133.75s-.03-.03-.04-.04c-4.01-4.01-13.38,0-21.4-1.34-37.45-9.36-72.23-12.04-109.68-16.05-1.34,0-1.34,4.01-2.68,4.01-2.68,0-4.01-2.68-6.69-2.68-5.35,1.34-9.36,5.35-13.38,6.69-57.37,4.99-105.44,36.74-133.35,86.55,4.16,13.28,8.38,22.63,8.87,23.7,6.11,13.28,13.32,24.78,16.96,30.58,7.29,11.63,13.18,19.62,14.89,21.91,4.57,6.11,8.76,11.22,12.17,15.2,1.82.72,3.68,1.52,5.58,2.42,8.35,3.98,15.09,8.81,20.4,13.45,29.77-19.26,61.43-38.7,94.97-58.02,36.31-20.91,71.63-39.85,105.67-57.01,5.9-22.62,8.66-46.01,7.7-69.4Z"/>
  <path class="st3" d="M146.15,145.92c-3.32.47-6.88,4.06-9.85,5.96-1.33,1.01-2.31,2.12-2.29,3.27.32,2.52,3.24,5.01,5.76,5.27,2.3.11,4.63-2.24,6.82-4.03,2.26-2.01,5.29-3.98,4.81-6.2-.55-2.15-2.82-4.15-5.03-4.28h-.23Z"/>
  <path class="st1" d="M111.5,172.43c.22,1.68,2.23,3.77,3.41,5.21,1.53,1.86,3,2.98,4.95,1.13,2.7-2.26,8.41-7.25,11.36-9.8.78-.72,1.92-1.55,1.87-2.58-.41-1.77-2.26-3.01-3.58-4.34-1.88-1.8-3.92-2.53-6.01-.67-2.22,1.69-5.65,4.49-8.35,6.69-2.1,1.76-3.7,2.86-3.66,4.19v.17Z"/>
  <path class="st2" d="M160.49,137.55c-1.01-.1-2.15.63-3.4,1.35-1.64,1.04-3.54,1.85-4.99,3.14-1.49,1.49.98,3.16,2.08,4.17.96.83,2.25,1.19,3.39.49.91-.5,1.72-1.26,2.55-1.9,1.65-1.43,4.11-2.76,3.69-4.3-.44-1.32-1.76-2.6-3.11-2.92l-.22-.03Z"/>
  <g>
    <path class="st5" d="M261.9,54.19C228.53,19.93,177.63,3.94,130.55,12.33,83.47,20.72,41.43,53.02,20.59,96.06-.24,139.11.4,191.79,21.69,234.61c35-36.38,73.96-68.96,115.96-96.97-19.88,6.31-39.76,12.61-59.64,18.92,11.89-31.57,45.07-53.81,78.79-52.81,17.31.51,34.11,7.14,47.72,17.81l66.51-56.98c-2.87-3.61-5.91-7.08-9.12-10.39Z"/>
    <path class="st4" d="M286.02,87.79c-1.92-3.72-4.03-7.4-6.34-11.04-2.67-4.21-5.56-8.28-8.66-12.18l-66.51,56.98c12.9,10.12,22.95,23.88,27.82,39.56,10.01,32.22-2.52,70.14-29.75,90.07-27.23,19.92-67.16,20.39-94.85,1.11,15.25-29,30.49-58.01,45.74-87.01l-14.14,12.12c-28.47,33.77-53.25,70.65-73.7,109.8-1.45,2.78-2.93,5.77-2.66,8.9.33,3.83,3.16,6.91,5.83,9.66,25.94,26.76,51.88,53.52,77.82,80.28,1.53,1.58,3.2,3.24,5.36,3.7,3.2.67,6.24-1.5,8.79-3.56,32.17-26.03,62.67-54.5,87.54-87.58,44.5-59.19,73.57-141.48,37.7-210.81Z"/>
  </g>
  <path class="st8" d="M206.05,120.82c-1.56,1.35-3.51,3.04-4.55,5.49-1.43,3.37-.64,6.79.05,9.81.22.97.43,1.88.57,2.76.97,6.33-2.62,13.23-8.34,16.05-.11.05-.2.1-.27.13-.04-.05-.08-.12-.13-.2-1.45-2.28-2.17-5.03-2.94-7.95-.4-1.51-.81-3.07-1.34-4.61-2.22-6.49-6.54-10.67-11.56-11.19-.63-.07-1.3-.08-1.97-.09-.76-.01-2.18-.03-2.39-.3,0,0,0-.03-.02-.04l-4.15,3.53c1.81,2.19,4.5,2.25,6.48,2.27.5,0,1.01.01,1.48.06,3.36.35,5.81,4.12,6.98,7.54.46,1.35.83,2.75,1.22,4.23.84,3.19,1.71,6.49,3.62,9.49.57.9,1.51,2.14,3.13,2.63.45.14.9.19,1.32.19,1.33,0,2.44-.55,2.93-.79,7.89-3.89,12.65-13.05,11.31-21.78-.17-1.08-.41-2.14-.64-3.17-.56-2.42-1.08-4.7-.35-6.44.54-1.28,1.84-2.4,3.09-3.49l8.12-7.02-3.86-3.86-7.8,6.75Z"/>
  <path class="st10" d="M293.7,25.97s-.03-.02-.04-.03c-.58-.4-2.34-1.75-5.92-1.96-7.24-.44-12.94,1.32-12.94,1.32-9.56,2.95-15.82,8.81-18.9,12.23-2.32,2.58-3.91,4.97-4.9,6.61.44.78,1.45,2.36,2.79,2.34.22,0,.38-.05.47-.08,3.19-.96,6.51-4.82,6.51-4.82,1.41-1.3,3.5-2.6,7.68-5.19,0,0,11.28-7.76,18.74-6.98,1.5.16,2.62.5,3.41,1.04.02.02.04.04.07.06,4.22,3.01,2.2,12.14-.14,16.45-3.77,6.94-10.41,12.32-16.36,16.84-3.08,2.34-6.57,4.99-8.29,9.04-1.3,3.07-1.32,6.3-1.34,9.15l-.31,49.42c-.02,2.41-.03,4.91-.94,6.89-.97,2.12-3.02,3.82-5,5.46l-9.87,8.16c-.58.48-1.31,1.08-1.79,1.16-1.03.19-2.37-2.19-2.92-5.16l-7.76-41.88c-.89-4.8-3.97-5.07-4.88-5.04-1.59.06-2.67.99-3.26,1.5l-21.15,18.3c-1.56,1.35-3.51,3.04-4.55,5.49-1.43,3.37-.64,6.79.05,9.81.22.97.43,1.88.57,2.76.97,6.33-2.62,13.23-8.34,16.05-.11.05-.2.1-.27.13-.04-.05-.08-.12-.13-.2-1.45-2.28-2.17-5.03-2.94-7.95-.4-1.51-.81-3.07-1.34-4.61-2.22-6.49-6.54-10.67-11.56-11.19-.63-.07-1.3-.08-1.97-.09-.76-.01-2.18-.03-2.39-.3,0,0,0-.03-.02-.04l-4.15,3.53c1.81,2.19,4.5,2.25,6.48,2.27.5,0,1.01.01,1.48.06,3.36.35,5.81,4.12,6.98,7.54.46,1.35.83,2.75,1.22,4.23.84,3.19,1.71,6.49,3.62,9.49.57.9,1.51,2.14,3.13,2.63.45.14.9.19,1.32.19,1.33,0,2.44-.55,2.93-.79,7.89-3.89,12.65-13.05,11.31-21.78-.17-1.08-.41-2.14-.64-3.17-.56-2.42-1.08-4.7-.35-6.44.54-1.28,1.84-2.4,3.09-3.49l20.44-17.69,7.72,41.66c1.21,6.52,4.8,10.28,9.15,9.55,1.93-.32,3.33-1.48,4.36-2.33l9.87-8.16c2.23-1.84,5-4.13,6.49-7.4,1.39-3.05,1.41-6.43,1.43-9.14l.31-49.42c.02-2.45.03-4.98.9-7.04,1.15-2.71,3.91-4.8,6.61-6.85,6.37-4.84,13.53-10.66,17.82-18.56,3.59-6.61,5.55-18.66-1.59-23.61Z"/>
  <path class="st9" d="M240.2,52.23c-2.46.75-5.43,1.04-6,1.07-2.08.11-4.2.03-6.28-.04l-45.12-1.62c-3.74-.14-7.99-.29-12.03,1.02-6.73,2.16-11.33,7.64-15.83,13.54-2.4,3.15-1.9,5.4-1.05,6.73,1.04,1.63,2.83,2.09,3.69,2.31l46.07,11.78-10.77,9.55c-1.72,1.53-3.67,3.26-5.75,3.69-2,.42-4.41-.32-6.53-.96l-13.29-4.07c-2.5-.76-5.61-1.72-8.85-1.09-2.72.53-4.96,2.07-6.84,3.47-2.69,2-5.3,4.15-7.78,6.41-.68.62-2.27,2.07-2.2,4.28.04,1.58.88,3.7,4.62,4.87l13.15,4.13c2.43.76,4.94,1.55,6.82,2.98,1.72,1.31,2.71,3.17,2.53,4.75-.06.53-.24,1.17-.42,1.85-.55,2.01-1.3,4.76.56,7.18.04.06.09.1.14.15l4.15-3.53c-.15-.33.2-1.63.4-2.34.22-.81.48-1.74.58-2.69.4-3.51-1.39-7.23-4.65-9.72-2.64-2.01-5.74-2.98-8.48-3.84l-13.15-4.13c-.07-.02-.14-.04-.2-.06,2.28-2.07,4.69-4.05,7.17-5.89,1.47-1.09,3.04-2.19,4.64-2.5,1.92-.37,4.21.33,6.24.95l13.29,4.07c2.61.8,5.85,1.79,9.22,1.09,3.49-.73,6.12-3.07,8.24-4.94l11.46-10.16c2.78-2.46,2.39-4.68,1.91-5.78-.86-1.98-2.9-2.5-3.67-2.7l-47.23-12.08c.08-.12.18-.26.3-.43,4.11-5.38,7.93-9.98,13.18-11.66,3.15-1.01,6.72-.88,10.18-.76l45.12,1.62c1.9.26,4.03.33,6.34.05,10.82-1.33,17.55-9.61,19.6-12.35-.89-.76-1.78-1.51-2.67-2.27-1.78,2.34-5.44,6.45-10.79,8.08Z"/>
  <path class="st7" d="M206.19,56.11c7.11.25,14.22.51,21.34.76,4.4.16,8.92.3,13.07-1.15,3.08-1.07,5.8-2.97,8.31-5.05,5.72-4.72,10.56-10.45,16.36-15.07,5.8-4.62,13.01-8.17,20.39-7.41,1.62.17,3.25.56,4.59,1.47,5.85,3.99,3.55,14.56.77,19.66-3.91,7.15-10.41,12.49-16.81,17.32-2.89,2.18-5.93,4.47-7.36,7.79-1.06,2.47-1.09,5.24-1.11,7.93-.1,16.13-.2,32.26-.3,48.4-.02,2.67-.05,5.43-1.16,7.85-1.19,2.59-3.46,4.49-5.66,6.3-3.24,2.66-6.48,5.33-9.71,7.99-.91.75-1.87,1.52-3.03,1.71-3.42.57-5.31-3.79-5.94-7.2-2.55-13.67-5.09-27.34-7.64-41.01-.23-1.24-.83-2.79-2.09-2.75-.6.02-1.1.43-1.55.82-6.94,5.97-13.88,11.94-20.82,17.92-1.48,1.27-3,2.6-3.76,4.4-1.44,3.4.23,7.21.79,10.86,1.13,7.37-2.98,15.24-9.67,18.52-.7.34-1.5.65-2.24.42-.7-.21-1.19-.83-1.59-1.45-2.45-3.84-3-8.56-4.49-12.87s-4.59-8.7-9.12-9.17c-2.16-.22-4.8.31-6.13-1.4-1.46-1.89.14-4.54.41-6.91.31-2.74-1.34-5.42-3.54-7.08s-4.9-2.52-7.53-3.34c-4.32-1.35-8.63-2.7-12.95-4.04-1.2-.37-2.63-1.04-2.67-2.3-.02-.86.66-1.56,1.29-2.14,2.38-2.16,4.86-4.2,7.45-6.1,1.72-1.27,3.55-2.51,5.65-2.92,2.48-.48,5.01.26,7.43,1,4.36,1.33,8.73,2.65,13.09,3.98,2.52.77,5.17,1.54,7.75,1,2.67-.56,4.84-2.42,6.88-4.23,3.76-3.32,7.52-6.63,11.28-9.95.76-.67,1.61-1.65,1.2-2.59-.29-.68-1.1-.93-1.82-1.12-15.51-3.94-31.02-7.89-46.53-11.83-.77-.2-1.61-.44-2.04-1.11-.7-1.09.11-2.49.9-3.52,3.89-5.07,8.19-10.39,14.28-12.34,3.5-1.12,7.26-1,10.94-.87,7.7.28,15.39.55,23.09.83Z"/>
  <path class="st11" d="M468.11,127.64h-47.05l-27.17,127.9h-32l27.17-127.9h-47.95l6.29-29.31h127l-6.29,29.31Z"/>
  <path class="st11" d="M479.68,255.53h-29.42l23.13-108.81h28.3l-2.58,11.45c9.09-11,20.1-14.37,30.99-14.37,5.28,0,11.12,1.24,16.17,3.26l-9.43,28.18c-4.27-2.25-10.33-3.48-15.83-3.48-13.7,0-25.04,8.2-29.08,25.83l-12.24,57.94Z"/>
  <polygon class="st11" points="571.54 255.53 542.01 255.53 565.14 146.72 594.67 146.72 571.54 255.53"/>
  <path class="st12" d="M606.13,111.13c0,10.56-8.2,18.64-18.75,18.64s-18.64-8.09-18.64-18.64,8.09-18.86,18.64-18.86,18.75,8.31,18.75,18.86Z"/>
  <path class="st11" d="M632.29,244.53l-11.79,55.92h-29.53l32.68-153.72h28.75l-1.91,8.87c7.19-6.96,16.39-11.9,29.42-11.9,26.39,0,45.93,21.9,45.93,50.08,0,30.99-23.02,64.57-60.75,64.57-15.05,0-26.16-4.94-32.79-13.81ZM640.15,200.73c-2.25,18.19,8.65,30.32,24.25,30.32,17.74,0,31.1-15.61,31.1-34.14,0-15.72-10.22-25.71-24.59-25.71-16.17,0-28.75,12.58-30.77,29.53Z"/>
  <path class="st12" d="M908.64,255.53h-31.89l24.93-116.67-57.49,101.51h-33.24l-16.39-101.62-24.7,116.78h-31.89l33.46-157.2h44.8l16.84,106.9,61.42-106.9h47.61l-33.46,157.2Z"/>
  <path class="st12" d="M1051.04,210.5c-7.52,35.48-31.22,47.83-57.94,47.83s-44.69-13.81-44.69-39.53c0-4.15.56-8.53,1.57-13.25l12.46-58.84h29.53l-13.03,61.09c-.56,2.7-.79,5.05-.79,7.19,0,11.23,7.19,16.06,17.63,16.06,12.8,0,23.24-8.31,26.84-25.71l12.35-58.62h29.64l-13.59,63.78Z"/>
  <path class="st12" d="M1144.58,202.2l29.42,53.34h-32l-17.85-33.69-28.97,33.69h-35.37l50.42-55.58-29.08-53.22h32.34l16.96,34.25,28.75-34.25h35.48l-50.08,55.47Z"/>
  <path class="st6" d="M18.11,277.61c-3.14,5.09-5.46,10.86-4.84,16.94.65,9.51,8.01,13.92,15.12,6.25,3.7-3.87,6.25-8.87,8.78-13.6,8.84-17.1,18.9-33.56,30.05-49.25l-10.12-13.44c-14.35,16.69-27.4,34.49-38.99,53.09Z"/>
  <path class="st0" d="M110.38,182.69c-.88-4.07-6.54-4.35-9.53-1.9l-.2.14c-9.58,8.17-18.75,16.84-27.5,25.91l-.04.02v.02c-.89.92-1.75,1.88-2.64,2.81,3.28,3.48,6.19,7.55,9.21,11.63,8.38-10.61,17.27-20.83,26.66-30.56,2.16-2.25,4.79-5.1,4.03-8.06Z"/>
  <path class="st7" d="M75.22,298.96"/>
</svg>