<?xml version="1.0" encoding="UTF-8"?>
<svg id="katman_1" data-name="katman 1" xmlns="http://www.w3.org/2000/svg" viewBox="0 0 598.08 133.7">
  <path d="M32.48,23.94H0v-15.4h83.16v15.4h-32.48v82.6h-18.2V23.94Z" fill="#fff"/>
  <path d="M136.64,30.94v16.66c-1.54-.28-2.8-.42-4.06-.42-13.3,0-21.7,7.84-21.7,23.1v36.26h-17.5V31.78h16.66v10.92c5.04-7.84,14.14-11.76,26.6-11.76Z" fill="#fff"/>
  <path d="M151.48,31.78h17.5v74.76h-17.5V31.78Z" fill="#fff"/>
  <path d="M271.32,69.16c0,23.24-16.1,38.36-37.94,38.36-9.52,0-17.92-3.22-23.94-10.08v36.26h-17.5V31.78h16.66v9.8c5.88-7.14,14.56-10.64,24.78-10.64,21.84,0,37.94,15.12,37.94,38.22ZM253.54,69.16c0-14.28-9.52-23.38-22.12-23.38s-22.26,9.1-22.26,23.38,9.66,23.38,22.26,23.38,22.12-9.1,22.12-23.38Z" fill="#fff"/>
  <path d="M413,63.7v42.84h-17.5v-40.6c0-13.3-6.16-19.74-16.8-19.74-11.48,0-19.46,7.56-19.46,22.4v37.94h-17.5v-40.6c0-13.3-6.16-19.74-16.8-19.74-11.62,0-19.46,7.56-19.46,22.4v37.94h-17.5V31.78h16.66v9.52c5.6-6.72,14.28-10.36,24.5-10.36,10.92,0,20.02,4.06,25.2,12.46,6.02-7.7,16.1-12.46,28-12.46,18.06,0,30.66,10.22,30.66,32.76Z" fill="#fff"/>
  <path d="M507.78,31.78v74.76h-16.66v-9.52c-5.6,6.86-14.42,10.5-24.08,10.5-19.18,0-32.2-10.5-32.2-33.04V31.78h17.5v40.32c0,13.58,6.44,20.02,17.5,20.02,12.18,0,20.44-7.56,20.44-22.54V31.78h17.5Z" fill="#fff"/>
  <polygon points="578.34 106.54 559.16 80.64 539.84 106.54 520.52 106.54 549.64 68.6 521.78 31.78 541.24 31.78 559.58 56.28 577.92 31.78 596.82 31.78 568.82 68.32 598.08 106.54 578.34 106.54" fill="#fff"/>
  <polygon points="579.35 104.54 559.16 77.29 538.83 104.54 524.57 104.54 552.15 68.61 525.8 33.78 540.24 33.78 559.58 59.62 578.92 33.78 592.77 33.78 566.3 68.32 594.03 104.54 579.35 104.54" fill="#00a3ff"/>
  <path d="M150.36,9.94c0-5.74,4.2-9.94,9.94-9.94s9.94,4.2,9.94,9.94-4.2,9.94-9.94,9.94-9.94-4.2-9.94-9.94Z" fill="#00a3ff"/>
</svg>